<svg xmlns="http://www.w3.org/2000/svg" width="29.118" height="29.13" viewBox="0 0 29.118 29.13">
  <path id="패스_1" data-name="패스 1" d="M28.52,20.97l-4.36-4.36a2.026,2.026,0,0,0-1.45-.6h0a2.009,2.009,0,0,0-1.45.6l-2.91,2.91L9.62,10.79l2.95-2.95a2,2,0,0,0,0-2.83L8.17.61A2.058,2.058,0,0,0,6.7,0h0A2.051,2.051,0,0,0,5.25.6L.88,4.97C.75,5.1-.4,6.34.15,9.08.79,12.3,3.49,16.3,8.16,20.97c6.68,6.68,10.9,8.16,13.32,8.16a3.766,3.766,0,0,0,2.68-.89l4.36-4.36a2.049,2.049,0,0,0,.6-1.46A2.009,2.009,0,0,0,28.52,20.97Z" transform="translate(-0.002)"/>
</svg>
